<svg width="640" height="480" xmlns="http://www.w3.org/2000/svg" xmlns:svg="http://www.w3.org/2000/svg"><path d="m98,382c0,-2.34 0,-3.12 0,-3.97c0,-0.86 0,-2.09 0,-2.82c0,-0.69 0,-1.36 0,-2.73c0,-0.73 0,-1.46 0,-2.17c0,-1.27 0,-2.05 0,-2.99c0,-1 0,-1.84 0,-2.42c0,-1.2 0,-2.1 0,-2.7c0,-1.2 0,-2.09 0,-2.93c0,-0.94 0,-1.77 0,-2.82c0,-0.74 0,-1.62 0,-2.62c0,-0.72 0,-1.48 0,-2.28c0,-0.84 0,-2.17 0,-3.11c0,-0.47 0,-1.42 0,-2.36c0,-0.92 0,-1.8 0,-2.63c0,-0.77 0,-2.12 0,-2.96c0,-0.79 0,-1.35 0,-2.76c0,-0.41 0,-1.29 0.06,-2.2c0.08,-1.38 0.15,-1.82 0.3,-2.67c0.2,-1.16 0.42,-1.8 0.56,-2.82c0.13,-0.9 0.09,-1.82 0.09,-2.74c0,-0.67 0,-1.35 0,-2.54c0,-0.98 0,-1.94 0,-2.72c0,-0.82 0,-1.88 0,-2.6c0,-0.74 0,-1.94 0,-2.69c0,-0.81 0,-1.64 0,-2.41c0,-1.2 0,-2.13 0,-3.11c0,-0.79 0,-1.39 0,-2.75c0,-0.73 0,-1.48 0.06,-2.23c0.08,-1.09 0.29,-2.1 0.44,-2.73c0.21,-0.92 0.4,-1.82 0.46,-2.73c0.04,-0.62 0.04,-1.96 0.04,-2.67c0,-0.73 0,-1.46 0,-2.78c0,-0.83 0,-1.58 0,-2.67c0,-0.64 0,-1.69 0,-2.42c0,-1.08 0,-1.76 0,-2.71c0,-0.85 0,-1.86 0,-2.73c0,-1.01 0,-1.85 0,-2.58c0,-1.2 0,-1.88 0,-2.58c0,-1.32 0,-1.88 0,-2.83c0,-1.02 -0.06,-1.84 0.17,-2.82c0.19,-0.84 0.54,-1.5 0.71,-2.64c0.1,-0.65 0.11,-1.34 0.12,-2.3c0.01,-1 0.04,-1.86 0.29,-2.83c0.2,-0.79 0.42,-1.39 0.59,-2.75c0.09,-0.72 0.11,-1.44 0.12,-2.42c0.01,-1 0,-1.8 0,-2.72c0,-0.8 0,-1.76 0,-2.55c0,-0.78 0,-1.98 0,-2.75c0,-1.05 0,-1.59 0,-2.52c0,-1.03 -0.02,-1.76 0.04,-2.81c0.03,-0.64 0.39,-1.8 0.68,-2.58c0.34,-0.93 0.28,-1.72 0.28,-2.72c0,-0.8 0,-1.8 0,-2.56c0,-0.95 0,-1.72 0,-2.68c0,-0.84 0,-1.84 0,-2.63c0,-0.75 0,-1.88 0,-2.57c0,-1 0,-1.95 0,-2.59c0,-1.09 0,-1.96 0,-2.84c0,-0.92 0,-1.91 0,-2.71c0,-1 0.06,-1.81 -0.17,-2.8c-0.14,-0.61 -0.55,-1.38 -0.75,-2.4c-0.17,-0.89 -0.15,-1.45 -0.31,-2.46c-0.12,-0.79 -0.28,-1.61 -0.43,-2.42c-0.24,-1.33 -0.3,-2.15 -0.71,-3.03c-0.26,-0.57 -0.57,-1.74 -0.62,-2.37c-0.06,-0.67 -0.15,-1.99 -0.38,-2.79c-0.19,-0.67 -0.6,-1.63 -0.65,-2.57c-0.04,-0.95 0,-1.7 0,-2.61c0,-0.8 0,-1.76 0,-2.56c0,-0.82 0,-1.85 0,-2.73c0,-1.02 0,-1.7 0,-2.81c0,-0.73 0,-1.46 0,-2.56c0,-0.87 -0.07,-1.65 -0.35,-2.68c-0.21,-0.78 -0.51,-1.82 -0.59,-2.52c-0.1,-0.89 -0.06,-1.83 -0.06,-2.79c0,-0.7 0.03,-1.68 -0.01,-2.49c-0.04,-0.88 -0.27,-1.87 -0.49,-2.67c-0.21,-0.75 -0.47,-1.71 -0.5,-2.69c-0.02,-0.83 0.07,-1.81 0,-2.67c-0.08,-1.01 -0.29,-1.59 -0.43,-2.3c-0.15,-0.77 -0.44,-2.19 -0.52,-2.94c-0.08,-0.71 -0.06,-1.69 -0.06,-2.46c0,-0.86 0,-2.06 0,-2.64c0,-0.81 0.05,-2.02 -0.09,-2.79c-0.14,-0.81 -0.45,-1.54 -0.63,-2.35c-0.28,-1.22 -0.28,-1.87 -0.28,-2.88c-0.01,-0.96 0.08,-1.93 -0.09,-2.68c-0.18,-0.8 -0.65,-1.5 -0.83,-2.51c-0.16,-0.88 -0.09,-1.89 -0.09,-2.7c0,-0.9 0,-1.79 0,-2.73c0,-0.69 0,-1.73 0,-2.62c0,-0.74 0,-1.8 0,-2.72c0,-0.83 0,-1.81 0,-2.53c0,-0.94 0,-1.79 0,-2.65c0,-1.02 0,-1.85 0,-2.82c0,-0.83 0,-1.72 0,-2.66c0,-0.69 0,-1.73 0,-2.62c0,-0.81 0,-1.72 0,-2.51c0,-0.82 0,-1.88 0,-2.8c0,-0.76 0,-1.77 0,-2.79c0,-0.71 0,-1.45 0,-2.49c0,-0.85 0,-1.78 0,-2.8c0,-0.88 0,-1.69 0,-2.63c0,-0.89 0,-1.83 0,-2.64c0,-0.93 0,-1.79 0,-2.56c0,-0.94 0,-1.94 0,-2.69c0,-1.02 0,-1.86 0,-2.82c0,-0.83 0,-1.81 0,-2.67c0,-0.81 0,-1.65 0,-2.41c0,-1.17 0,-1.97 0,-2.74c0,-1.04 0,-1.81 0,-2.71c0,-0.94 0,-1.87 0,-2.65c0,-1.01 0,-1.85 0,-2.75c0,-0.79 0,-1.71 0,-2.73c0,-0.78 0,-1.69 0,-2.65c0,-0.69 0,-1.75 0,-2.68c0,-0.85 0,-1.69 0,-2.67c0,-0.76 0,-1.67 0,-2.65l0,-0.88" fill="none" id="svg_2" stroke="#ffffff" stroke-width="5"/><path d="m98,381c6.82,0.22 7.48,0.28 8.15,0.35c0.67,0.07 1.35,0.15 2.69,0.29c0.67,0.07 1.99,0.19 2.63,0.23c1.26,0.08 1.87,0.09 2.48,0.1c1.18,0.02 1.75,0.02 2.88,0.02c1.08,0 1.6,0 2.63,0c0.98,0 1.45,0 2.82,0c0.86,0 1.66,0 2.4,0c1.28,0 2.06,0.04 3,-0.09c1.01,-0.14 1.81,-0.43 2.36,-0.56c1.26,-0.3 1.89,-0.34 2.97,-0.35c0.79,-0.01 1.69,0 2.59,0c0.9,0 1.81,0 2.72,0c0.89,0 1.88,0 2.68,0c1,0 1.79,-0.01 2.51,0c0.99,0.01 1.8,0.25 2.7,0.57c0.78,0.28 1.58,0.41 2.62,0.43c0.86,0.01 1.77,0 2.67,0c0.91,0 1.83,-0.08 2.67,0.04c0.82,0.11 1.55,0.72 2.47,0.91c0.77,0.15 1.79,0.06 2.57,0.06c0.98,0 1.78,-0.01 2.78,0c0.79,0.01 1.84,0.16 2.48,0.5c0.84,0.44 1.58,0.57 2.57,0.78c0.63,0.13 1.64,0.39 2.61,0.55c0.82,0.14 1.56,0.14 2.75,0.39c0.54,0.11 1.38,0.4 2.58,0.61c0.59,0.1 1.48,0.15 2.31,0.17c1,0.01 1.91,0 2.85,0c0.79,0 1.68,0 2.32,0c1.4,0 2.13,0 2.85,0c0.69,0 1.9,0.05 2.88,-0.04c0.96,-0.08 1.74,-0.33 2.56,-0.54c1.06,-0.27 1.77,-0.36 2.45,-0.45c1.2,-0.17 2,-0.41 2.55,-0.55c1.06,-0.27 1.99,-0.41 2.82,-0.42c1,-0.02 1.74,0 2.78,0c0.95,0 1.63,0 2.6,0c0.83,0 1.79,0 2.54,0c0.8,0 1.79,0 2.67,0c1.01,0 1.83,0 2.98,0c0.78,0 1.57,0.01 2.5,0c0.85,-0.01 1.83,-0.17 2.7,-0.35c0.67,-0.15 1.38,-0.33 2.47,-0.48c1.01,-0.14 1.65,-0.16 2.57,-0.17c1.2,-0.01 1.8,0 2.7,0c1.2,0 1.79,0 2.63,0c1.13,0 1.92,0 2.81,0c0.96,0 1.69,0 2.65,0c0.98,0 1.83,0 2.81,0c0.8,0 1.6,0.03 2.6,0c0.8,-0.03 1.8,-0.3 2.42,-0.5c1.14,-0.36 1.93,-0.46 2.75,-0.49c1.06,-0.04 1.77,-0.01 2.45,-0.01c1.2,0 2.02,0 2.62,0c1.32,0 2.04,0 2.79,0c0.77,0 1.57,0 2.76,0c0.79,0 1.54,0 2.54,0c1.01,0 1.84,-0.02 3.06,-0.17c0.43,-0.05 1.43,-0.19 1.98,-0.26c1.17,-0.15 1.77,-0.23 2.37,-0.29c1.68,-0.18 2.19,-0.21 3.14,-0.25c0.88,-0.04 1.7,-0.04 2.91,-0.04c0.79,0 1.56,0 2.29,0c1.27,0 2.08,0 2.93,0c1.05,0 1.92,0 2.4,0c1.04,0 1.58,0 2.7,0c1.11,0 2.19,0 2.72,0c1.02,0 1.52,0 2.48,0c1.37,0 2.26,0 2.71,-0.01c0.98,-0.02 1.51,-0.03 3.37,-0.16c0.73,-0.05 1.51,-0.12 2.33,-0.19c0.85,-0.07 1.73,-0.15 2.63,-0.22c0.9,-0.07 1.8,-0.15 3.54,-0.26c0.84,-0.05 1.64,-0.08 2.42,-0.11c0.76,-0.02 1.49,-0.04 2.21,-0.05c0.7,-0.01 1.38,-0.01 2.7,-0.01c0.65,0 1.28,0 2.55,0c0.64,0 1.28,0 1.92,0c2.02,0 2.73,0 3.46,0c0.73,0 1.46,0 2.19,0c0.72,0 1.42,0 3.38,0c0.58,0 1.13,0 2.12,0c0.9,0 1.74,0 2.94,0c0.8,0 1.58,0 2.34,0c1.09,0 2.1,0 2.76,0c0.98,0 2.02,0 2.75,0c0.73,0 1.78,0 2.71,0c0.81,0 1.66,0 2.71,0c0.87,0 1.85,0 2.35,0c1.03,0 1.53,0 2.91,0c0.8,0 1.87,0 2.55,0c1.04,0 1.78,0 2.56,0c0.82,0 2.13,0 3.04,0c0.47,0 1.4,0 2.31,0c1.28,0 2.04,0 2.74,0c0.96,0 2.17,0 2.78,0c0.93,0 1.58,0 2.62,0c1.13,0 1.92,0 2.34,0c1.3,0 2.22,0 3.16,0c0.47,0 1.42,0 2.81,0c0.88,0 1.31,-0.01 2.15,0.02c0.82,0.03 2.02,0.14 2.82,0.26c0.82,0.13 1.67,0.31 2.57,0.43c0.96,0.13 2,0.2 2.53,0.23c1.08,0.05 1.61,0.05 2.65,0.06c1.39,0.01 2.19,0 2.91,0c0.69,0 2.06,0 2.8,0c0.76,0 1.55,0 2.74,0c0.8,0 1.58,0 2.33,0c1.34,0 2.17,0 2.96,0c0.57,0 1.58,0 2.37,0c0.83,0 1.63,0 2.96,0c0.86,0 1.89,0 2.75,0c0.67,0 1.39,0 2.47,0c1.01,0 1.65,0.02 2.57,-0.09c1.21,-0.14 1.81,-0.34 2.7,-0.62c0.9,-0.28 1.8,-0.61 2.42,-0.77c0.96,-0.26 2,-0.41 2.73,-0.46c0.75,-0.05 1.49,-0.05 2.93,-0.06c0.67,0 1.65,0 2.31,0c1.04,0 1.77,0 2.54,0c0.78,0 1.98,-0.01 2.78,0c1.16,0.01 1.9,0 2.87,0.17c0.84,0.14 1.57,0.47 2.67,0.67c0.63,0.12 1.73,0.15 2.53,0.16c0.42,0.01 1.75,0 2.68,0c0.93,0 1.39,0 2.28,0c1.23,0 2.29,0 2.91,0c1.09,0 1.82,0 2.59,0c1.33,0 2.2,0 2.68,0c1.01,0 1.52,0 2.53,0c1.39,0 2.18,0 2.89,0c0.96,0 1.86,0 2.77,0c0.63,0 1.96,0 2.67,0c0.74,0 1.49,0 2.95,0c0.68,0 1.33,0.03 2.26,-0.06c1.21,-0.11 1.81,-0.29 2.74,-0.55c0.65,-0.18 1.68,-0.5 2.41,-0.68c0.73,-0.19 1.78,-0.45 2.71,-0.58c1,-0.14 1.64,-0.12 2.65,-0.12c0.91,0 2.03,0 2.69,0c0.68,0 1.65,0 2.83,0c0.75,0 1.72,0 2.39,0c1.12,0 1.78,0 2.79,0c0.63,0 1.82,0 2.65,0c1.05,0 1.86,-0.01 2.44,-0.09c1.2,-0.15 2.08,-0.42 2.64,-0.62c1.05,-0.37 1.92,-0.82 2.56,-1.01c0.98,-0.3 1.82,-0.28 2.8,-0.57c0.82,-0.24 1.8,-0.62 2.4,-0.68c0.8,-0.07 1.99,-0.04 2.71,-0.04c0.96,0 1.89,0 2.78,0c0.93,0 1.79,0 2.7,0c0.8,0 1.7,0 2.64,0c0.85,0 1.75,-0.05 2.61,0.35c0.81,0.38 1.56,0.65 2.46,0.65c0.9,0 1.78,0 2.74,0c0.74,0 1.8,0 2.66,0c0.79,0 1.73,0 2.73,0c0.76,0 1.65,0 2.6,0c0.87,0 1.73,-0.17 2.56,-0.5c0.83,-0.33 1.63,-0.49 2.49,-0.5c0.79,0 1.85,0.01 2.81,0c0.66,-0.01 1.63,0.06 2.58,-0.42c0.76,-0.38 1.53,-0.57 2.52,-0.57c0.8,0 1.8,0 2.58,0c0.85,0 1.73,0 2.63,0l0.95,0l0.86,0" fill="none" id="svg_3" stroke="#ffffff" stroke-width="5"/><path d="m81,71c1.39,-0.85 1.86,-1.77 2.29,-2.57c0.31,-0.59 1.23,-1.13 1.69,-1.89c0.47,-0.77 0.29,-1.58 0.73,-2.48c0.41,-0.85 1.1,-1.4 1.52,-2.16c0.39,-0.72 0.99,-1.38 1.38,-2.11c0.52,-0.98 0.87,-1.55 1.23,-2.62c0.25,-0.74 0.62,-1.55 1.08,-2.37c0.4,-0.7 0.98,-1.28 1.37,-2c0.46,-0.85 0.59,-1.64 1.24,-2.28c0.64,-0.63 1.4,0.14 1.46,1c0.05,0.71 -0.19,1.87 0.19,2.65c0.37,0.75 0.82,1.43 0.83,2.33c0.01,0.91 0.21,1.83 0.5,2.48c0.44,0.97 0.5,1.82 0.5,2.72c0,0.9 -0.14,1.81 0.01,2.7c0.14,0.83 0.43,1.79 0.99,2.43c0.45,0.52 0.92,1.12 1.5,1.67c0.64,0.6 1.45,0.85 2,1.48l0.78,0.31" fill="none" id="svg_9" stroke="#ffffff" stroke-width="5"/><path d="m538,361c2.01,1.3 2.79,1.59 3.32,1.8c1.23,0.48 1.87,0.74 2.66,1.3c0.7,0.49 1.58,0.7 2.32,1.26c0.76,0.57 0.81,1.53 1.57,2.03c0.61,0.4 1.56,0.76 2.19,1.26c0.65,0.51 1.7,0.32 2.35,0.79c0.78,0.57 1.31,1.19 2.16,1.55c0.8,0.34 1.73,0.62 2.31,1.23c0.65,0.68 0.97,1.19 1.69,1.8c0.62,0.53 1.1,0.68 1.92,0.97c0.63,0.23 0.68,1.37 0.52,2.2c-0.17,0.85 -1.06,1.32 -1.69,1.69c-1,0.59 -1.52,0.96 -2.36,1.4c-0.77,0.41 -1.73,0.64 -2.41,0.76c-0.97,0.17 -1.8,0.38 -2.71,0.71c-1.02,0.38 -1.72,0.72 -2.45,1.06c-0.73,0.34 -1.41,0.69 -2.34,1.15c-0.76,0.38 -1.53,0.86 -2.54,1c-0.97,0.14 -1.67,0.02 -2.74,0.02l-0.85,0l-0.83,0.28" fill="none" id="svg_10" stroke="#ffffff" stroke-width="5"/><text fill="#ffffff" font-family="Sans-serif" font-size="29.1" id="svg_11" stroke="#ffffff" stroke-width="0" text-anchor="middle" x="281.5" xml:space="preserve" y="422.22">Challenging</text><text fill="#ffffff" font-family="Sans-serif" font-size="29.1" id="svg_12" stroke="#ffffff" stroke-width="0" text-anchor="middle" x="59" xml:space="preserve" y="272">Fun</text><path d="m98,381c1,-1.04 1.1,-2.03 1.44,-2.78c0.31,-0.68 1.22,-0.96 2.11,-1.3c0.92,-0.36 1.23,-1.05 1.72,-1.64c0.53,-0.64 1.04,-1.32 1.82,-2.23c0.46,-0.54 1.18,-1.3 1.69,-1.81c0.87,-0.88 1.21,-1.2 1.91,-1.93c0.38,-0.39 1.19,-1.23 1.61,-1.68c0.88,-0.95 1.34,-1.47 1.8,-2c0.95,-1.09 1.43,-1.65 1.93,-2.22c0.49,-0.57 0.98,-1.14 1.99,-2.25c0.5,-0.55 1,-1.08 1.5,-1.6c0.5,-0.52 0.99,-1.03 2,-2c0.5,-0.48 1.5,-1.4 2,-1.84c0.5,-0.44 1.52,-1.32 2.04,-1.76c0.53,-0.46 1.08,-0.92 1.63,-1.41c1.17,-1.04 1.77,-1.61 2.4,-2.2c0.64,-0.6 1.28,-1.22 1.93,-1.85c0.65,-0.62 1.29,-1.24 1.93,-1.85c1.23,-1.16 1.82,-1.69 2.4,-2.2c0.56,-0.49 1.11,-0.97 1.65,-1.43c0.54,-0.46 1.07,-0.92 1.6,-1.39c1.09,-0.96 1.64,-1.48 2.21,-2.01c0.59,-0.55 1.2,-1.12 1.85,-1.71c0.68,-0.61 1.39,-1.25 2.17,-1.89c1.67,-1.38 2.61,-2.07 3.59,-2.8c1.01,-0.75 2.06,-1.49 3.12,-2.25c1.06,-0.76 2.13,-1.52 3.16,-2.3c2,-1.5 2.92,-2.25 3.79,-2.99c0.85,-0.72 1.66,-1.43 2.44,-2.13c0.77,-0.68 1.51,-1.35 2.26,-1.99c1.47,-1.25 2.24,-1.84 3,-2.4c0.76,-0.56 1.53,-1.1 2.3,-1.63c0.76,-0.52 1.51,-1.03 2.25,-1.54c1.44,-1 2.13,-1.5 2.8,-2.01c0.67,-0.5 1.33,-1.02 1.99,-1.54c0.67,-0.53 1.34,-1.07 2.03,-1.63c1.45,-1.16 2.21,-1.77 3,-2.4c0.81,-0.64 1.64,-1.29 2.49,-1.93c0.85,-0.65 1.71,-1.3 2.58,-1.93c1.71,-1.25 2.56,-1.83 3.4,-2.4c0.83,-0.56 1.66,-1.1 2.5,-1.61c0.84,-0.51 1.68,-1.01 2.55,-1.47c1.75,-0.94 2.67,-1.37 3.6,-1.81c0.95,-0.44 1.91,-0.88 2.89,-1.34c1,-0.47 2.01,-0.95 3.03,-1.48c2.09,-1.1 3.14,-1.74 4.19,-2.4c1.06,-0.67 2.11,-1.38 3.14,-2.1c1.02,-0.72 2.01,-1.45 2.96,-2.19c1.81,-1.41 2.62,-2.12 3.4,-2.79c0.74,-0.65 1.44,-1.29 2.1,-1.91c0.64,-0.6 1.25,-1.19 1.83,-1.77c1.13,-1.12 1.67,-1.67 2.21,-2.2c0.53,-0.53 1.06,-1.06 1.58,-1.58c0.53,-0.53 1.05,-1.05 1.58,-1.58c1.08,-1.08 1.64,-1.64 2.2,-2.2c0.57,-0.57 1.13,-1.13 1.7,-1.7c0.56,-0.56 1.11,-1.11 1.65,-1.65c1.04,-1.04 1.53,-1.53 2,-2c0.46,-0.45 0.91,-0.89 1.35,-1.31c0.43,-0.41 0.86,-0.8 1.3,-1.17c0.87,-0.74 1.34,-1.07 1.8,-1.4c0.47,-0.33 0.96,-0.65 1.46,-0.96c0.5,-0.31 1.02,-0.62 1.54,-0.92c1.08,-0.61 1.63,-0.9 2.2,-1.2c0.57,-0.3 1.13,-0.6 1.7,-0.9c0.56,-0.3 1.11,-0.6 1.65,-0.9c1.04,-0.59 1.53,-0.9 2,-1.2c0.46,-0.29 0.9,-0.59 1.33,-0.88c0.42,-0.28 0.83,-0.57 1.24,-0.84c0.8,-0.53 1.2,-0.77 1.6,-1c0.4,-0.23 0.79,-0.46 1.18,-0.68c0.39,-0.22 0.77,-0.45 1.14,-0.68c0.73,-0.47 1.07,-0.73 1.4,-1c0.33,-0.26 0.64,-0.54 0.95,-0.82c0.3,-0.27 0.58,-0.55 0.85,-0.82c0.52,-0.51 0.77,-0.76 1,-1c0.23,-0.23 0.46,-0.46 0.68,-0.68c0.23,-0.23 0.45,-0.45 0.68,-0.68c0.48,-0.48 0.74,-0.74 1,-1.01c0.27,-0.28 0.84,-0.89 1.13,-1.23c0.6,-0.73 1.49,-2.04 1.79,-2.53c0.3,-0.51 0.9,-1.57 1.2,-2.11c0.3,-0.54 0.57,-1.09 1.5,-2.6c0.3,-0.48 0.92,-1.4 1.26,-1.84c0.69,-0.92 1.08,-1.38 1.94,-2.33c0.46,-0.51 0.95,-1.04 1.48,-1.58c0.54,-0.55 1.1,-1.11 1.69,-1.68c0.6,-0.57 1.21,-1.15 2.5,-2.25c0.65,-0.55 1.32,-1.09 2,-1.62c0.69,-0.54 1.41,-1.07 2.15,-1.61c0.76,-0.55 1.54,-1.11 3.18,-2.27c0.86,-0.61 1.75,-1.23 2.64,-1.86c0.9,-0.63 1.79,-1.26 2.67,-1.88c0.85,-0.6 1.68,-1.18 3.18,-2.26c0.67,-0.48 1.29,-0.93 1.86,-1.34c0.53,-0.39 1.04,-0.76 1.51,-1.12c0.46,-0.34 0.91,-0.68 1.79,-1.37c0.46,-0.35 0.92,-0.72 1.4,-1.1c0.49,-0.39 1,-0.78 1.52,-1.18c0.54,-0.42 1.09,-0.84 2.25,-1.72c0.61,-0.46 1.24,-0.92 1.89,-1.39c0.66,-0.48 1.34,-0.97 2.04,-1.45c0.71,-0.5 1.43,-1 2.91,-1.99c0.75,-0.5 1.52,-1 2.29,-1.5c0.77,-0.51 1.55,-1.01 2.32,-1.53c0.77,-0.52 1.55,-1.03 3.06,-2.13c0.75,-0.55 1.49,-1.12 2.23,-1.7c0.75,-0.59 1.52,-1.2 2.3,-1.82c0.81,-0.64 1.65,-1.3 3.46,-2.65c0.97,-0.72 1.98,-1.43 3.02,-2.17c1.05,-0.74 2.11,-1.48 3.15,-2.21c1.02,-0.72 2.02,-1.41 3.83,-2.79c0.82,-0.63 1.57,-1.24 2.27,-1.82c0.65,-0.54 1.25,-1.06 1.83,-1.54c0.54,-0.46 1.05,-0.91 2.07,-1.64c0.49,-0.35 1,-0.65 1.5,-0.94c0.5,-0.29 1,-0.56 1.5,-0.83c0.5,-0.28 1.02,-0.55 2,-1.22c0.51,-0.35 1,-0.75 1.5,-1.16c0.5,-0.42 0.98,-0.86 1.47,-1.3c0.48,-0.44 0.94,-0.88 1.87,-1.71c0.44,-0.39 0.88,-0.77 1.31,-1.12c0.43,-0.35 0.85,-0.69 1.28,-1.02c0.43,-0.33 0.86,-0.67 1.74,-1.35c0.46,-0.35 0.92,-0.72 1.41,-1.1c0.51,-0.39 1.04,-0.8 1.61,-1.22c0.6,-0.44 1.23,-0.9 2.64,-1.85c0.77,-0.52 1.59,-1.04 2.43,-1.57c0.87,-0.55 1.75,-1.1 2.64,-1.64c0.88,-0.55 1.76,-1.08 3.42,-2.12c0.78,-0.49 1.53,-0.96 2.23,-1.42c0.68,-0.44 1.33,-0.87 1.95,-1.29c0.61,-0.41 1.19,-0.81 2.31,-1.62c0.55,-0.4 1.08,-0.8 1.6,-1.2c0.52,-0.4 1.02,-0.81 1.52,-1.23c0.49,-0.42 0.97,-0.83 1.88,-1.73c0.45,-0.45 0.88,-0.91 1.31,-1.38c0.42,-0.46 0.84,-0.93 1.25,-1.39c0.41,-0.45 0.78,-0.92 2.01,-2.12c0.39,-0.38 1.19,-1.07 1.58,-1.4c0.76,-0.64 1.15,-0.93 2.2,-1.84c0.69,-0.6 1.38,-1.24 1.75,-1.57c0.8,-0.7 1.73,-1.46 2.25,-1.87c0.55,-0.43 1.13,-0.87 1.74,-1.32c0.62,-0.46 1.25,-0.92 1.88,-1.39c0.63,-0.47 2.45,-1.83 3.03,-2.26c0.56,-0.42 1.11,-0.84 1.65,-1.24c0.53,-0.4 1.59,-1.17 2.69,-1.88c0.55,-0.35 1.11,-0.69 1.68,-1.01c1.13,-0.64 1.69,-0.94 2.24,-1.25c1.58,-0.89 2.07,-1.2 2.54,-1.51c0.92,-0.6 1.37,-0.92 2.27,-1.56c0.46,-0.33 1.43,-1.01 2.46,-1.73c0.54,-0.37 1.08,-0.73 1.63,-1.1c1.09,-0.72 1.63,-1.06 2.67,-1.69c0.96,-0.57 1.42,-0.82 2.27,-1.31c0.8,-0.46 1.2,-0.67 2.24,-1.44c0.69,-0.51 1.32,-1.1 1.97,-1.68c1.01,-0.9 1.37,-1.2 2.1,-1.8c0.73,-0.6 1.11,-0.88 1.78,-1.5c0.95,-0.87 1.47,-1.51 1.99,-2.12c0.54,-0.64 1.47,-1.65 1.84,-2c0.8,-0.76 1.26,-1.14 1.74,-1.54c0.5,-0.42 1.57,-1.31 2.73,-2.27c0.61,-0.51 1.23,-1.03 1.88,-1.57c0.65,-0.54 1.31,-1.08 1.98,-1.61c0.66,-0.53 1.32,-1.06 2.65,-1.99c0.64,-0.45 1.28,-0.85 1.9,-1.23c0.61,-0.37 1.22,-0.73 1.82,-1.07c0.58,-0.34 1.17,-0.66 2.28,-1.36c1.1,-0.7 1.62,-1.09 2.16,-1.46c0.55,-0.38 1.08,-0.78 2.26,-1.49c1.23,-0.75 1.91,-1.07 2.6,-1.4c0.7,-0.33 1.41,-0.64 2.13,-0.94c0.71,-0.3 1.41,-0.58 2.08,-0.85c1.27,-0.52 2.4,-1 2.9,-1.23c0.93,-0.43 1.77,-0.84 2.87,-1.46c0.69,-0.39 1.35,-0.81 2.03,-1.24c0.35,-0.22 1.47,-0.93 2.31,-1.45c0.44,-0.27 1.35,-0.83 1.82,-1.13c0.93,-0.59 1.85,-1.18 2.73,-1.79c0.43,-0.3 1.27,-0.9 1.67,-1.2c0.81,-0.6 2.01,-1.5 2.41,-1.8c0.83,-0.61 1.25,-0.93 2.17,-1.56c0.48,-0.33 1.53,-1.01 2.09,-1.36c0.59,-0.37 1.83,-1.11 2.48,-1.48c0.65,-0.38 1.31,-0.75 1.98,-1.12c1.31,-0.72 1.96,-1.06 2.59,-1.4c0.62,-0.33 1.23,-0.64 2.41,-1.24c0.56,-0.29 1.11,-0.56 2.64,-1.33c0.47,-0.24 1.37,-0.69 2.22,-1.15c0.41,-0.22 1.63,-0.94 2.42,-1.46c0.41,-0.27 1.21,-0.82 2.06,-1.36c0.43,-0.27 1.76,-1.04 2.22,-1.27c0.92,-0.46 1.38,-0.65 2.25,-1.08c1.18,-0.58 1.83,-0.98 2.63,-1.6c0.5,-0.39 1.46,-1.21 2.01,-1.6c0.59,-0.43 1.25,-0.86 2.37,-1.56c0.83,-0.52 1.27,-0.79 2.19,-1.33c0.46,-0.28 1.39,-0.82 2.31,-1.33c0.88,-0.49 1.31,-0.71 2.13,-1.15c0.78,-0.42 1.88,-1.02 2.56,-1.42c0.66,-0.39 1.31,-0.81 1.97,-1.2c1.03,-0.61 1.77,-1 2.54,-1.4c0.78,-0.4 1.18,-0.6 2.38,-1.2l0.79,-0.39l0.77,-0.37l0.73,-0.33" fill="none" id="svg_14" stroke="#ff2222" stroke-dasharray="null" stroke-linecap="null" stroke-linejoin="null" stroke-width="5"/></svg>
